<svg xmlns="http://www.w3.org/2000/svg" xmlns:xlink="http://www.w3.org/1999/xlink" version="1.1" id="Layer_1" x="0px" y="0px" viewBox="0 0 11546.3 4779.5" style="enable-background:new 0 0 11546.3 4779.5;" xml:space="preserve">
<style type="text/css">
	.st0{fill:#FFFFFF;}
</style>
<g>
	<g>
		<path class="st0" d="M3750.8,1995.9c-69.9,97.2-88.1,185.2-136.7,285.5c-60.7,112.4-94.1,230.9-133.7,343.2    c-48.6,88-100.2,176.2-139.7,261.2c-30.4,72.9-100.3,173.1-206.5,303.7c-106.4,130.6-194.4,212.6-267.3,252.1    c-33.4,15.2-72.9,39.5-100.3,54.7c-27.3,15.2-57.7,21.3-91.1,18.2c-142.7-9.2-261.2-63.8-352.3-161    c-60.7-57.8-97.2-142.7-112.4-252.2c0-12.1,0-33.4-3.1-69.8c3.1-36.5,15.2-79,33.4-127.6c24.3-57.7,45.5-112.4,69.9-163.9    c69.8-148.8,151.8-270.4,246-361.5c124.6-124.5,279.5-233.9,458.7-328.1c51.7-27.3,124.5-42.5,188.4-63.8    c39.4-6,81.9,12.1,127.6,54.7c21.2,21.2,18.2,39.4-9.2,54.6c-15.2,9.2-24.3,15.2-33.4,15.2c-112.4,9.2-212.6,79-309.8,127.6    c-97.2,57.7-176.2,133.6-258.2,203.5c-63.8,57.7-112.4,124.5-164,188.3l-27.3,45.6c-33.4,57.7-66.8,118.4-91.1,170.1    c-18.2,36.5-27.4,57.7-27.4,66.8c-24.3,85.1-45.5,164-60.7,246c-15.2,60.7,6.1,103.2,57.8,130.6c51.6,39.4,115.4,60.7,194.4,60.7    c21.2,3.1,42.5-3.1,63.8-12.1c94.1-39.5,173.1-103.3,243-191.3c27.3-36.5,63.8-69.9,91.1-115.4c18.2-18.2,36.5-39.5,51.7-66.8    c72.9-130.6,145.8-246,206.5-382.8c57.8-133.6,121.5-267.3,182.3-410c27.3-69.9,57.7-136.7,94.1-209.6    c12.1-36.5,45.5-69.9,60.7-109.4c12.2-27.3,48.6-33.4,51.7-69.8c0-15.2,9.2-42.5,27.3-82c27.4-63.8,45.6-127.6,79-197.4    c21.2-66.8,51.6-133.7,88-203.5c3.1-15.2,12.1-36.4,21.3-51.7c-45.5,42.5-94.1,72.9-139.8,94.2l-39.4,30.4    c-3.1,6.1-9.2,12.1-18.2,18.2c-45.5,15.2-79,39.5-115.4,60.7c-45.5,24.3-79,54.7-127.6,66.8l-142.7,63.8    c-79,27.4-157.9,45.5-237,51.7c-109.3,9.1-203.5-6.1-282.4-45.6c-36.5-15.2-42.5-39.5-18.2-69.8c15.2-21.2,36.5-27.4,63.8-24.3    l33.4,12.2c54.7,21.2,109.3,33.4,167.1,33.4c33.4,0,69.8,0,103.2-12.1c27.4-9.1,60.8-12.2,97.2-21.2    c63.8-15.2,127.6-39.5,191.4-72.9c0,0,21.2-9.1,63.8-30.4l69.8-36.4c6.1-3.1,30.4-15.2,72.9-42.5c51.7-27.4,103.2-60.7,161-100.3    c39.4-24.3,85.1-57.7,121.5-103.3c9.2-9.1,18.2-12.1,24.3-9.1h6l6.1,3.1c36.5,27.3,97.2,66.8,133.7,91.1    c21.3,15.2,33.4,33.4,33.4,57.7c0,54.7-9.2,100.2-27.4,136.7c-48.6,85-100.2,161-127.6,236.9    C3878.3,1749.9,3787.2,1883.5,3750.8,1995.9z M2292.8,2885.9c0,3,3.1,15.2,3.1,15.2c3-6.1,6-9.2,6-12.2c3.1-3,3.1-12.1,3.1-24.3    C2301.9,2873.7,2292.8,2882.8,2292.8,2885.9z M2380.8,2721.9h-3.1l-15.2,33.4l-18.2,36.4l-18.2,39.5l-21.3,33.4l21.3-33.4    l21.2-36.5l18.2-33.4L2380.8,2721.9z M2396,2682.3c-9.1,9.2-15.2,24.3-15.2,39.5C2390,2712.7,2396,2700.6,2396,2682.3z     M2399.1,2682.3h-3.1H2399.1z M2426.5,2661.1c27.3-39.5,60.7-91.2,88-139.8c0,0,6.1-9.1,15.2-30.4    c-63.8,45.5-106.3,109.3-130.6,191.3C2411.2,2679.3,2417.3,2673.3,2426.5,2661.1z M2742.3,2278.4c-18.2,6.1-27.3,9.2-27.3,9.2    c-57.8,57.7-118.5,103.2-167.1,161c-15.2,15.2-15.2,30.4-18.2,39.4C2593.5,2430.3,2666.4,2360.4,2742.3,2278.4z M2529.7,2487.9    v3.1V2487.9z M3456.1,2287.5c0,51.6-33.4,82-54.7,127.6c-15.2,21.2-21.2,39.4-24.3,54.6c-3.1,33.4-18.2,60.8-45.5,76    c-18.2,15.2-27.4,30.4-27.4,45.5c-3,0-6,6-6,6c0,3.1,3.1,12.2,6,12.2c0,48.6-18.2,85-51.7,106.3c-9.1,3.1-12.1,12.1-12.1,27.3    c0,9.2-3.1,12.2-6,12.2c-39.5,0-39.5,36.4-42.6,63.8h3.1c-12.1,21.2-15.2,69.8-27.3,91.1l-9.2,27.3l-109.3,185.3    c-3.1,9.1-3.1-51.7-3.1-51.7c-21.2,12.1-12.1,66.8-21.2,79c-45.6,57.8-103.3,100.3-136.7,158c-27.3,21.2-51.7,57.7-79,69.8    c-36.5,24.3-72.9,24.3-109.3,45.5c-3.1,3.1-3.1,6.1-3.1,12.2c0,0,6,3.1,15.2,3.1l88-36.5c27.4-15.2,48.6-30.4,60.8-42.6    c72.9-63.8,139.7-127.6,203.5-212.5c39.5-69.9,85.1-133.7,124.5-206.6c21.3-33.4,51.7-85,91.2-161    c12.1-106.3,97.2-191.3,130.6-303.7c0-3.1,0-3.1,3.1-6.1c39.4-39.4,51.6-72.9,42.5-100.2c0,3,3.1-3.1,9.1-18.2    c18.2-15.2,24.3-42.6,21.3-79L3456.1,2287.5z M2745.4,2278.4l18.2-18.2c0,0,0,0,0-3.1L2745.4,2278.4h-3.1H2745.4z M2833.4,2208.5    c-30.4,0-54.6,15.2-69.8,48.6C2794,2257.1,2818.2,2241.9,2833.4,2208.5z M2836.5,2205.5c-3.1,0-3.1,0-3.1,0v3L2836.5,2205.5z     M2836.5,2205.5c0,0,0,0,3.1,0c0,0,0,0,0-9.2L2836.5,2205.5z M3037,2108.3c3.1,6,0,15.2-6.1,24.3c27.3-3.1,45.5-15.2,54.7-36.5    l79-33.4c0,0,3.1-9.1,12.1-12.1c-12.1-3.1-18.2-6-21.3-6c-27.3,12.1-48.5,21.2-69.8,33.4c-15.2-15.3-33.4-15.3-54.7,0    C3018.7,2093.1,3040,2096.1,3037,2108.3z M3030.9,2132.6l-3.1,6.1L3030.9,2132.6z M3046,3071.1v-3.1V3071.1z M3465.2,1446.1    c-51.6,15.2-97.2,36.4-136.6,60.8c-21.3,15.2-60.7,30.4-121.5,45.5l-100.2,33.4c-3.1,0-9.2,3-12.2,6.1v6.1c0,3.1,3.1,6.1,3.1,6.1    h3.1c45.5-9.1,79-15.2,100.3-21.3c24.3,0,63.8-3.1,88-24.3c6.1-3,15.2-6.1,27.4-6.1c12.1-3.1,21.2-9.1,33.3-18.2    c15.3-12.1,45.6-24.3,85.1-39.5c21.3-12.2,48.6-21.2,72.9-42.5C3495.6,1443.1,3480.4,1443.1,3465.2,1446.1z M3422.7,2299.6    c0,3.1,3.1,6,6.1,9.1c0,0,6-3.1,6-6c0,0,0-12.2,0-15.2C3425.8,2290.5,3422.7,2299.6,3422.7,2299.6z M3437.9,2287.5    c-3.1,0-3.1,0-3.1,0H3437.9z M3450,2287.5c-3.1-15.2-9.1-15.2-12.1,0H3450z M3456.1,2287.5h-6.1H3456.1z M3489.5,2272.3h-3.1    c0,0,3.1,3,3.1-6.1C3489.5,2275.3,3489.5,2272.3,3489.5,2272.3z M3614,2001.9c0,0-6-3.1-6-6h-6.1c-15.2,12.1-36.5,24.3-39.5,36.4    c-27.3,85.1-63.8,158-72.9,233.9c15.2-3.1,27.3-12.1,30.4-33.4c9.1-45.5,27.3-97.2,60.7-151.9c12.2-12.1,18.2-36.4,30.4-60.7    C3611,2020.2,3611,2011.1,3614,2001.9z M3507.8,1452.2l3.1-3L3507.8,1452.2z M3778.1,1251.7l-33.4,21.2    c-24.3,12.2-45.5,27.4-66.8,39.5c-15.2,9.1-24.3,18.2-27.3,21.2l-27.3,18.2c-45.6,9.1-63.8,45.5-91.2,60.7l-12.1,15.2l-9.1,21.3    c15.2-3.1,45.5-18.2,85-45.6c9.2,0,15.2-12.1,30.4-15.2c60.8-27.3,121.5-72.9,173.2-109.3c9.1-3.1,15.2-9.1,18.2-21.3    L3778.1,1251.7z M3677.8,1856.2h-6c-45.6,21.3-36.5,57.8-48.6,91.2c0,0,3,6,6,6c0,0,0,0,9.2,0c24.3-36.5,39.4-66.8,42.5-91.1    C3687,1859.2,3687,1856.2,3677.8,1856.2z M3708.2,1768.1c3.1-3-6,12.2-27.3,39.5c0,0,9.2,9.2,12.1,9.2c3.1,0,6.1,0,6.1-3.1    c3.1-15.2,15.2-27.3,24.3-42.5c0,0-6-3.1-6-6.1L3708.2,1768.1z M3817.6,1257.8h3H3817.6z M3820.6,1257.8c0,0,0,0,9.2-3v-3.1h-6.1    L3820.6,1257.8z M3860.1,1230.5c0,0,3.1-3.1,3.1-6.1v-6.1l-6.1,6.1L3860.1,1230.5z M3875.3,1184.9c0,0,0,3.1,3.1,3.1    c0,0,0-3.1,3.1-3.1l-3.1-3L3875.3,1184.9z"/>
		<path class="st0" d="M3927.2,2591.2c-33.4,57.7-69.9,103.2-97.2,154.9c-33.4,51.7-60.7,103.3-100.2,142.7    c-15.2,15.2-18.2,33.4-33.4,42.6c-6.1,12.1-15.2,15.2-24.3,6c-45.6-12.1-72.9-48.6-76-112.4c-3.1-82,12.2-167,45.6-255.1    c27.3-72.9,45.5-154.9,91.1-224.8c0-21.3,9.1-42.5,30.4-60.7c48.6-45.5,69.9-112.4,121.5-161c30.4-27.4,66.8-54.7,112.5-82    c54.6-27.4,109.3-27.4,161,0c-3.1-3.1,9.1,6,36.4,24.3c33.4,21.3,60.8,15.2,82-15.2c3.1-3.1,3.1-6,3.1-9.1    c33.4-42.6,66.8-42.6,100.2,0c3.1,12.1,12.1,30.4,24.3,45.5c3.1,9.1,3.1,21.3,0,33.4c-33.4,51.7-45.5,106.3-79,157.9    c-36.4,57.8-51.7,121.5-75.9,173.1c-12.1,21.3-15.2,42.6-24.3,57.8c-39.5,69.9-60.8,142.7-106.4,212.6    c-24.3,45.5-33.4,88-30.4,133.7c0,3,3.1,6,6.1,6c9.1,0,12.1,0,15.2-3.1c51.6-69.8,109.3-133.6,167-203.5    c33.4-39.5,106.4-157.9,142.8-209.6c-3.1,9.1,6,0,33.3-27.4c3.1,21.3-6,48.7-21.2,76l-100.3,151.8    c-39.5,60.8-72.9,109.4-100.2,142.8c-36.5,51.6-66.8,85-91.1,106.3c-45.5,51.7-94.1,48.6-145.8-3.1    c-21.3-15.2-30.4-39.4-30.4-66.8c-6.1-57.7,3-112.4,27.3-163.9c12.1-39.5,21.3-88.1,48.6-127.6c27.3-33.4,36.5-82,51.7-130.6    c9.1-30.4,21.2-69.8,30.4-115.3c9.1-48.6,15.2-72.9,15.2-76c12.1-12.1,18.2-36.4,33.4-51.7c0,0-6.1,0-6.1-9.1l-6-3.1    c-15.2,12.1-36.5,15.2-48.6,18.2c-48.6,15.2-88.1,33.4-118.5,54.7c-15.2,15.2-21.3,24.3-21.3,27.3c-3.1,36.5-36.4,51.7-48.6,79    c-39.4,63.8-85,127.6-106.3,203.6c-45.5,69.8-66.8,154.9-94.1,230.8c3-3,6,0,6,15.2c0,0,9.2-6,12.2-9.1    c33.3-45.5,57.7-82,72.9-109.3c15.2-12.2,21.3-33.4,36.5-48.6c39.4-33.4,69.8-82,103.2-127.6c27.4-45.6,60.8-79,88.1-130.6    c27.3-45.6,51.7-79,72.9-97.2c21.3-18.2,12.2,12.1-33.4,91.1C4030.5,2433.3,3975.8,2509.2,3927.2,2591.2z M3751,2576.1    c0-3.1-3.1-9.2-9.2-12.1c-3,3-6,9.1-6,15.2c0,3,3.1,9.1,9.1,18.2c0,0,6.1-6,6.1-15.2C3751,2579.1,3751,2576.1,3751,2576.1z     M4109.4,2621.6c0,3.1,3,12.1,3,12.1l6.1-3.1c0-3-3.1-6-3.1-18.2C4112.4,2618.6,4109.4,2621.6,4109.4,2621.6z M4133.7,2582.1    l-3.1-3v3H4133.7z M4170.2,2491c-6.1,3.1-9.2,9.1-9.2,15.2c0,0,0,6.1,9.2,6.1c0-3.1,3.1-12.2,3.1-15.2    C4173.2,2497.1,4170.2,2494,4170.2,2491z M4224.9,2381.7c0,0,0-3.1,0-12.1c-6.1,6-9.2,9.1-9.2,9.1c-9.1,3.1-6.1,15.2-6.1,15.2    c-6,6.1-9.1,9.1-9.1,9.1s0,6.1,0,18.2c0,0,6.1-6,9.1-9.1c0,0,0-9.2,0-18.2C4218.8,2390.7,4221.8,2387.7,4224.9,2381.7z"/>
		<path class="st0" d="M4789.9,2521.4c33.4-42.5,48.6-72.9,51.7-91.1v6c15.2-9.1,15.2-24.3,0-42.5v3.1    c27.3-57.8,63.8-109.3,97.2-167.1l3-9.1l66.8-69.9c21.3-21.3,36.5-48.6,60.8-75.9c12.1-15.2,24.3-18.2,36.4-6.1    c39.5,27.3,66.8,51.7,82,69.9c9.2,12.1,12.2,27.3,9.2,48.6c0,9.1-6.1,33.4-15.2,66.8l-18.2,30.4c-118.5,154.9-188.4,328-246,507.2    c-39.5,136.7-91.1,267.3-139.7,397.9c-12.2,48.6-36.5,88-51.7,133.7c-24.3,63.8-60.8,115.4-94.1,167    c-33.4,48.6-85.1,97.2-155,142.8c-12.1,9.1-39.4,21.2-85.1,30.4c-94.1,15.2-179.2-3.1-258.2-54.7c-66.8-39.5-121.5-97.2-164-170.1    c-24.3-39.5-27.3-82-9.1-127.6c3.1,0,9.1-9.1,9.1-12.1c3.1,3.1,6.1,9.2,6.1,15.2l9.1,36.5c15.3,82,69.9,136.6,164,164    c124.6,36.5,227.8,6,309.8-94.1c51.7-60.8,100.3-151.9,145.8-270.4c36.5-97.2,66.8-203.5,103.3-309.8    c15.2-57.7,36.5-106.3,60.7-163.9c0,0-3.1-6.1-3.1-18.2c-9.1,9.1-12.1,12.1-12.1,9.1c-39.4,57.8-63.8,97.2-72.9,118.5    c-21.3,51.7-66.8,103.2-136.7,154.9c-51.7,39.5-97.2,33.4-139.7-24.3c-39.5-51.7-57.8-103.3-57.8-161    c3.1-112.4,30.4-224.8,76-340.2c36.4-85.1,85-161,124.5-246c24.3-39.5,54.6-88.1,54.6-145.8c-3-15.2,21.3-18.2,33.4-15.2    c45.6,42.5,82,75.9,103.3,100.3c15.2,18.2,18.2,42.5,6.1,75.9c-24.3,57.7-42.6,109.3-66.8,161c-27.4,60.7-54.7,109.3-79,167.1    c-48.6,75.9-72.9,164-97.2,249c-3.1,3.1-6.1,24.3-9.2,69.9c0,9.1,3.1,15.2,9.2,15.2c9.1,6.1,18.2,3.1,27.3-6.1    c42.5-39.4,85.1-94.1,130.6-163.9c27.3-48.6,60.7-88.1,94.1-136.7l-3.1-3.1c9.2,15.2,15.2,15.2,21.3,0l-3.1,3.1l21.3-21.3V2521.4z     M4188.5,3554.1h-18.2c9.1,3.1,15.2,6.1,18.2,6.1c12.1,0,24.3,0,39.5-3.1C4212.7,3554.1,4200.6,3554.1,4188.5,3554.1z     M4552.9,3374.8c0,0,0-3,0-6c-9.1,0-9.1,3.1-9.1,3.1c0,6,0,12.1-3.1,18.2c-3.1,3.1-9.1,12.2-18.2,15.3    c-63.8,60.7-109.3,106.3-133.6,133.6c0,3.1-6.1,9.2-9.2,9.2l3.1,6c0,3.1,3.1,3.1,9.1,3.1c63.8-42.5,106.4-88,127.6-136.6    c0,0,0-6.1,0-18.2c3-3.1,12.1-6.1,21.2-18.2C4540.8,3384,4543.9,3377.9,4552.9,3374.8z"/>
		<path class="st0" d="M5300.3,2819.1c9.1,27.3,27.3,39.4,54.7,36.5c36.4-6.1,72.9-24.3,109.3-57.8c51.7-48.6,121.5-97.2,167-167.1    l33.4-42.5c39.5-39.5,69.9-82,94.2-121.5c6-12.2,24.3-36.5,54.6-76c3.1-6,15.2-9.1,30.4-9.1c15.2,6,15.2,18.2,6.1,36.4    l-100.3,142.8c-9.1,12.1-21.3,21.2-24.3,30.4c-57.8,85.1-127.6,145.8-188.4,218.7c-24.3,21.3-60.7,51.7-112.4,91.2    c-33.4,21.2-66.8,24.3-106.3,9.1c-63.8-21.3-109.3-69.9-139.8-145.8c-21.2-75.9-27.3-142.7-15.2-206.5    c6.1-75.9,24.3-145.8,57.8-203.6c33.4-60.7,60.7-124.5,109.3-176.2c45.5-51.7,94.1-103.2,157.9-148.8c48.6-27.3,97.2-30.4,142.7-3    c21.3,15.2,39.5,24.3,54.7,30.4c24.3,15.2,45.5,9.1,63.8-12.1c36.5-51.7,66.8-88.1,88.1-112.5c9.1-15.2,21.2-12.1,36.5,3.1    c15.2,21.3,18.2,42.6,15.2,60.8c-9.2,45.5-21.3,79-36.5,97.2c-39.5,57.7-82,112.4-118.5,170.1c-48.6,72.9-103.3,133.7-139.7,203.6    c-18.2,36.4-39.5,39.4-66.8,6c3.1,3.1,0-6-15.2-27.3c-15.2-18.2-15.2-39.5,0-63.8c39.4-54.7,82-118.5,130.6-191.3    c9.1-12.2,15.2-24.3,18.2-33.4l-6.1-12.2c-39.5,15.2-66.8,30.4-85.1,45.6c-85,60.7-157.9,151.8-221.7,270.3    c-42.5,69.9-63.8,151.8-66.8,239.9C5282.1,2749.2,5288.2,2788.7,5300.3,2819.1z M5197,2570c0,15.2,3.1,18.2,3.1,30.4    c6.1,0,9.2,0,12.1,3.1c3.1,0,3.1-3.1,3.1-6.1c0-12.1,0-24.3-3.1-33.3C5200.1,2566.9,5197,2570,5197,2570z M5303.4,2220.7    c0,0,3.1,6,6,6c-6,6.1-21.2,30.4-45.5,76c-21.3,30.4-39.4,60.7-48.6,91.1c-21.2,45.5,12.1,39.5,24.3,12.1    c3-12.1,15.2-27.3,24.3-48.6c33.4-75.9,82-139.7,145.8-191.3c33.4-27.3,57.8-51.7,72.9-66.8v-3.1c-3.1,0-6.1-3-6.1-3    c-9.1,3-21.3,9.1-24.3,9.1c-57.8,33.4-100.2,79-145.8,124.5C5306.4,2226.7,5303.4,2229.8,5303.4,2220.7z"/>
		<path class="st0" d="M6053.6,2645.9c-15.2-21.2-18.2-36.4-3-48.6c0-3,6-15.2,15.2-30.4c60.7-100.2,103.2-218.7,127.6-355.4    c15.2-94.1-3.1-179.2-51.7-255.1c-9.1-15.2-21.3-36.5-36.5-69.9c-6-12.1-6-27.3,3.1-48.6c9.2-18.2,18.2-21.2,24.3-6    c21.2,33.4,57.7,51.7,103.2,60.7c27.3,6.1,48.6,24.3,66.8,54.7c15.2,39.4,33.4,91.1,57.7,130.6c3.1,3,3.1,6,3.1,15.2    c-9.1,60.7,3.1,121.5-6,179.2c-30.4,142.7-94.2,282.4-188.4,413l-60.7,79c-48.6,69.9-121.5,106.4-191.3,142.7    c-45.5,21.3-85.1,15.2-124.5-24.3c-51.7-51.7-79-115.4-76-197.4c9.2-127.6,36.5-252.1,85.1-376.7c12.1-30.4,33.4-72.9,66.8-127.6    c27.3-57.7,82-91.1,133.7-130.6c15.2-12.1,39.4-12.1,69.8,0l45.6,27.4c21.2,21.2,21.2,39.4,6,60.7c-15.2,15.2-36.5,36.5-63.8,57.7    c-21.3,21.3-30.4,39.5-33.4,54.7c-3.1,9.1-12.1,27.3-33.4,51.7c-51.7,69.8-88,145.8-106.3,227.8c-24.3,75.9-45.5,151.8-45.5,233.8    v33.4c0,15.2,6,18.2,21.2,15.2l36.5-18.2c63.8-24.3,106.3-88,130.6-139.7c69.9-12.1,97.2,15.2,112.4-45.5c0,0-12.1-9.2-15.2-9.2    c-9.1,0-18.2,3.1-27.3,9.2c-21.3,9.1-21.3,36.4-48.6,36.4H6053.6z M6281.4,2214.6c-6-3.1-12.1,0-15.2,3.1    c-6,15.2-9.1,21.3-9.1,21.3c0,18.2-6.1,45.5-21.3,79c-21.2,39.4-36.5,85-48.6,124.5c0,9.1,3.1,15.2,6.1,15.2c0,0,3.1,0,12.1,0    c21.3-9.1,33.4-27.3,42.5-51.7c18.2-72.9,33.4-127.6,45.6-167c0-3.1-3.1-6.1-3.1-18.2C6287.5,2217.6,6284.5,2214.6,6281.4,2214.6z     M6220.7,1959.5l3.1-3.1h-3.1V1959.5z M6290.6,2117.4c0-3.1-3.1-6.1-6.1-9.1c0,0-3.1,3-9.1,12.1c0,9.1,3.1,12.1,6,15.2    c0,9.1,3.1,12.1,3.1,12.1l6.1-9.1C6290.6,2123.5,6290.6,2117.4,6290.6,2117.4z"/>
		<path class="st0" d="M6412.2,2819.1c-21.3,45.5-33.4,72.9-42.6,82c-15.2,33.4-36.4,33.4-63.8,6c-21.2-15.2-33.4-39.4-39.4-72.9    c-6.1-18.2-3.1-45.5,9.1-79c48.6-100.3,94.1-200.5,133.7-294.6c39.4-88.1,85.1-176.2,124.5-270.3c48.6-100.3,94.1-215.7,145.8-322    c48.6-81.9,76-173.1,124.5-261.2c33.4-57.7,63.9-124.5,94.2-194.4c9.1-21.2,21.2-24.3,36.4-9.1c12.2,9.1,30.4,27.4,57.8,54.7    c33.4,27.3,39.4,60.7,24.3,106.3c-27.3,63.8-54.6,127.6-88,185.3l-303.7,628.7c118.4-130.6,233.8-267.3,261.1-300.7    c30.4-36.5,63.9-36.5,103.3-3.1c27.3,27.3,57.8,36.4,72.9,72.9c24.3,63.8,24.3,66.8,9.1,124.6c-12.1,39.4-15.2,79-27.3,115.3    c-36.5,82-82,170.1-136.7,258.2c-39.4,72.9-103.3,130.6-148.8,194.4c-27.3,33.4-60.7,54.7-103.2,69.9    c-42.6,18.2-85.1,12.1-130.6-21.3c-6.1-3-9.2-9.1-9.2-18.2c15.2-3.1,39.5,6,54.7-15.2c21.3-6.1,30.4-12.2,33.4-18.2    c15.2,0,21.3-6.1,18.2-21.3c12.1,0,18.2-6.1,18.2-18.2h6c51.7-30.4,82-66.8,94.1-112.4c12.2,0,18.2-6.1,18.2-15.2    c21.3-9.1,30.4-27.3,30.4-57.8c12.2-9.1,18.2-15.2,18.2-15.2l18.2-21.2c9.2-6.1,15.2-18.2,12.1-36.5l6.1-3.1l6.1-3.1    c-9.2,3.1-9.2,6.1-9.2,6.1c-15.2,9.1-18.2,21.3-12.1,39.5c-12.1,12.1-18.2,18.2-18.2,18.2c-9.1,9.2-18.2,15.2-18.2,15.2    c-24.3,15.3-33.4,36.5-30.4,57.8c-12.1,0-18.2,6.1-18.2,21.3c-42.5,24.3-75.9,60.7-100.2,106.3l-18.2,21.3    c-15.3,0-21.3,6-18.2,18.2c-21.3,0-33.4,6-36.5,18.2c-21.3,9.1-42.5-6.1-54.7,21.2c-27.3-15.2-45.5-42.5-57.7-85.1    c0-9.1,0-15.2,3.1-18.2c0,0,6,0,15.2,0c0,0,6,3,9.1,3c33.4,21.3,57.8,30.4,66.8,33.4c12.1,0,33.4-15.2,66.8-48.6    c75.9-82,142.7-173.1,206.5-276.4c39.5-63.8,72.9-148.8,106.4-255.1c0-21.3,0-39.4,9.1-63.8c0-21.3-9.1-27.3-30.4-18.2    c-21.3,12.1-33.4,24.3-39.5,36.5c-9.1,6.1-48.6,48.6-121.5,127.6l-200.5,224.8L6412.2,2819.1z M6454.7,2472.8    c0,3.1,3.1,12.1,3.1,15.2c0,0,6.1-3.1,9.1-12.1c6.1-3.1,9.2-9.1,9.2-12.1c0,0-6.1-3.1-6.1-6.1    C6460.8,2460.6,6457.8,2466.7,6454.7,2472.8z M6609.6,2162.9c-3,0-6,3.1-9.1,6.1c0,0,0,9.1,3.1,9.1c0,0,3.1-9.1,12.1-12.1    L6609.6,2162.9z M6624.8,2882.8c0,3.1,6,3.1,6,3.1c6.1-3.1,12.1-6.1,15.2-15.2c0,0,3.1,0,3.1-3.1h3.1l-6.1,9.1    C6637,2879.8,6627.8,2882.8,6624.8,2882.8z M6864.8,2612.4c3.1-6,9.1-12.1,18.2-15.2c0-6,0-9.1,3-9.1c0,3.1,0,6.1-3,9.1    C6880,2606.4,6873.9,2609.5,6864.8,2612.4c-3.1,6.1-6.1,12.2-15.2,21.3c-9.2,21.3-12.2,36.5-15.2,39.5    c-3.1,3.1-15.2,9.1-18.2,18.2c-48.6,36.4-82,88-115.4,127.6c0,0,0,6,0,18.2c-3.1,0-6.1,0-9.2,3v3.1c0-3.1,3.1-6,6.1-6l112.4-127.6    c3.1,0,3.1-9.1,3.1-24.3c3.1-3.1,12.1-6.1,21.3-15.2c0-15.2,6-27.3,9.1-39.5L6864.8,2612.4z M6712.9,1947.3l45.5-66.8    c0,0,0-6.1,0-21.3l-18.2,9.1l-27.3,42.6c3.1-6.1,3.1,6,3.1,36.5c-3.1,3-12.1,9.1-12.1,9.1s0,3.1,0,12.1c0,0,6-6,9.1-9.1V1947.3z     M6870.8,2487.9l3.1-3.1v-3C6870.8,2484.9,6870.8,2484.9,6870.8,2487.9z"/>
		<path class="st0" d="M9121.8,1995.9c-69.9,97.2-88.1,185.2-136.7,285.5c-60.7,112.4-94.1,230.9-133.7,343.2    c-48.6,88-100.2,176.2-139.7,261.2c-30.4,72.9-100.2,173.1-206.5,303.7c-106.4,130.6-194.4,212.6-267.3,252.1    c-33.4,15.2-72.9,39.5-100.2,54.7c-27.4,15.2-57.8,21.3-91.2,18.2c-142.7-9.2-261.2-63.8-352.3-161    c-60.7-57.8-97.2-142.7-112.4-252.2c0-12.1,0-33.4-3.1-69.8c3.1-36.5,15.2-79,33.4-127.6c24.3-57.7,45.5-112.4,69.9-163.9    c69.8-148.8,151.8-270.4,246-361.5c124.6-124.5,279.5-233.9,458.7-328.1c51.7-27.3,124.5-42.5,188.3-63.8    c39.5-6,82,12.1,127.6,54.7c21.2,21.2,18.2,39.4-9.2,54.6c-15.2,9.2-24.3,15.2-33.4,15.2c-112.4,9.2-212.6,79-309.8,127.6    c-97.2,57.7-176.2,133.6-258.2,203.5c-63.8,57.7-112.4,124.5-164,188.3l-27.3,45.6c-33.4,57.7-66.8,118.4-91.1,170.1    c-18.2,36.5-27.4,57.7-27.4,66.8c-24.3,85.1-45.5,164-60.7,246c-15.2,60.7,6.1,103.2,57.8,130.6c51.6,39.4,115.3,60.7,194.4,60.7    c21.2,3.1,42.5-3.1,63.8-12.1c94.1-39.5,173.1-103.3,243-191.3c27.3-36.5,63.8-69.9,91.1-115.4c18.2-18.2,36.5-39.5,51.7-66.8    c72.9-130.6,145.8-246,206.5-382.8c57.8-133.6,121.5-267.3,182.3-410c27.3-69.9,57.7-136.7,94.1-209.6    c12.1-36.5,45.5-69.9,60.7-109.4c12.2-27.3,48.6-33.4,51.7-69.8c0-15.2,9.2-42.5,27.3-82c27.4-63.8,45.6-127.6,79-197.4    c21.2-66.8,51.6-133.7,88-203.5c3.1-15.2,12.1-36.4,21.3-51.7c-45.5,42.5-94.1,72.9-139.8,94.2l-39.4,30.4    c-3.1,6.1-9.2,12.1-18.2,18.2c-45.5,15.2-79,39.5-115.4,60.7c-45.5,24.3-79,54.7-127.6,66.8l-142.7,63.8    c-79,27.4-157.9,45.5-237,51.7c-109.3,9.1-203.5-6.1-282.4-45.6c-36.5-15.2-42.6-39.5-18.2-69.8c15.2-21.2,36.5-27.4,63.8-24.3    l33.4,12.2c54.7,21.2,109.3,33.4,167.1,33.4c33.4,0,69.8,0,103.2-12.1c27.4-9.1,60.8-12.2,97.2-21.2    c63.8-15.2,127.6-39.5,191.3-72.9c0,0,21.3-9.1,63.9-30.4l69.8-36.4c6.1-3.1,30.4-15.2,72.9-42.5c51.7-27.4,103.2-60.7,161-100.3    c39.4-24.3,85.1-57.7,121.5-103.3c9.2-9.1,18.2-12.1,24.3-9.1h6l6.1,3.1c36.5,27.3,97.2,66.8,133.7,91.1    c21.2,15.2,33.4,33.4,33.4,57.7c0,54.7-9.2,100.2-27.4,136.7c-48.6,85-100.2,161-127.6,236.9    C9249.3,1749.9,9158.2,1883.5,9121.8,1995.9z M7663.8,2885.9c0,3,3.1,15.2,3.1,15.2c3-6.1,6-9.2,6-12.2c3.1-3,3.1-12.1,3.1-24.3    C7672.9,2873.7,7663.8,2882.8,7663.8,2885.9z M7751.9,2721.9h-3l-15.3,33.4l-18.2,36.4l-18.2,39.5l-21.3,33.4l21.3-33.4l21.2-36.5    l18.2-33.4L7751.9,2721.9z M7767,2682.3c-9.1,9.2-15.2,24.3-15.2,39.5C7761,2712.7,7767,2700.6,7767,2682.3z M7770.1,2682.3h-3.1    H7770.1z M7797.4,2661.1c27.4-39.5,60.8-91.2,88.1-139.8c0,0,6.1-9.1,15.2-30.4c-63.8,45.5-106.3,109.3-130.6,191.3    C7782.2,2679.3,7788.3,2673.3,7797.4,2661.1z M8113.3,2278.4c-18.2,6.1-27.3,9.2-27.3,9.2c-57.8,57.7-118.5,103.2-167.1,161    c-15.2,15.2-15.2,30.4-18.2,39.4C7964.5,2430.3,8037.4,2360.4,8113.3,2278.4z M7900.7,2487.9v3.1V2487.9z M8827.1,2287.5    c0,51.6-33.4,82-54.7,127.6c-15.2,21.2-21.2,39.4-24.3,54.6c-3.1,33.4-18.2,60.8-45.5,76c-18.2,15.2-27.4,30.4-27.4,45.5    c-3.1,0-6,6-6,6c0,3.1,3,12.2,6,12.2c0,48.6-18.2,85-51.6,106.3c-9.2,3.1-12.2,12.1-12.2,27.3c0,9.2-3.1,12.2-6,12.2    c-39.5,0-39.5,36.4-42.6,63.8h3.1c-12.1,21.2-15.2,69.8-27.3,91.1l-9.2,27.3l-109.3,185.3c-3.1,9.1-3.1-51.7-3.1-51.7    c-21.2,12.1-12.1,66.8-21.2,79c-45.6,57.8-103.3,100.3-136.7,158c-27.3,21.2-51.7,57.7-79,69.8c-36.5,24.3-72.9,24.3-109.3,45.5    c-3.1,3.1-3.1,6.1-3.1,12.2c0,0,6,3.1,15.2,3.1l88-36.5c27.4-15.2,48.6-30.4,60.8-42.6c72.9-63.8,139.7-127.6,203.5-212.5    c39.5-69.9,85.1-133.7,124.5-206.6c21.3-33.4,51.7-85,91.2-161c12.1-106.3,97.2-191.3,130.6-303.7c0-3.1,0-3.1,3.1-6.1    c39.4-39.4,51.6-72.9,42.5-100.2c0,3,3.1-3.1,9.1-18.2c18.2-15.2,24.3-42.6,21.3-79L8827.1,2287.5z M8116.4,2278.4l18.2-18.2    c0,0,0,0,0-3.1L8116.4,2278.4h-3.1H8116.4z M8204.4,2208.5c-30.4,0-54.6,15.2-69.8,48.6C8165,2257.1,8189.2,2241.9,8204.4,2208.5z     M8207.5,2205.5c-3.1,0-3.1,0-3.1,0v3L8207.5,2205.5z M8207.5,2205.5c0,0,0,0,3.1,0c0,0,0,0,0-9.2L8207.5,2205.5z M8408,2108.3    c3.1,6,0,15.2-6.1,24.3c27.4-3.1,45.5-15.2,54.7-36.5l79-33.4c0,0,3.1-9.1,12.1-12.1c-12.1-3.1-18.2-6-21.2-6    c-27.4,12.1-48.7,21.2-69.9,33.4c-15.2-15.3-33.4-15.3-54.7,0C8389.7,2093.1,8411,2096.1,8408,2108.3z M8401.9,2132.6l-3.1,6.1    L8401.9,2132.6z M8417.1,3071.1v-3.1V3071.1z M8836.2,1446.1c-51.6,15.2-97.2,36.4-136.6,60.8c-21.3,15.2-60.7,30.4-121.5,45.5    l-100.2,33.4c-3,0-9.1,3-12.1,6.1v6.1c0,3.1,3.1,6.1,3.1,6.1h3.1c45.5-9.1,79-15.2,100.2-21.3c24.3,0,63.8-3.1,88-24.3    c6.1-3,15.2-6.1,27.4-6.1c12.1-3.1,21.2-9.1,33.4-18.2c15.2-12.1,45.5-24.3,85-39.5c21.3-12.2,48.6-21.2,72.9-42.5    C8866.6,1443.1,8851.4,1443.1,8836.2,1446.1z M8793.7,2299.6c0,3.1,3.1,6,6.1,9.1c0,0,6-3.1,6-6c0,0,0-12.2,0-15.2    C8796.8,2290.5,8793.7,2299.6,8793.7,2299.6z M8808.9,2287.5c-3.1,0-3.1,0-3.1,0H8808.9z M8821,2287.5c-3-15.2-9.1-15.2-12.1,0    H8821z M8827.1,2287.5h-6.1H8827.1z M8860.5,2272.3h-3.1c0,0,3.1,3,3.1-6.1C8860.5,2275.3,8860.5,2272.3,8860.5,2272.3z     M8985.1,2001.9c0,0-6-3.1-6-6h-6.1c-15.2,12.1-36.5,24.3-39.5,36.4c-27.3,85.1-63.8,158-72.9,233.9c15.2-3.1,27.3-12.1,30.4-33.4    c9.1-45.5,27.3-97.2,60.7-151.9c12.1-12.1,18.2-36.4,30.4-60.7C8982,2020.2,8982,2011.1,8985.1,2001.9z M8878.8,1452.2l3.1-3    L8878.8,1452.2z M9149.1,1251.7l-33.4,21.2c-24.3,12.2-45.5,27.4-66.8,39.5c-15.2,9.1-24.3,18.2-27.3,21.2l-27.3,18.2    c-45.6,9.1-63.8,45.5-91.2,60.7l-12.1,15.2l-9.1,21.3c15.2-3.1,45.5-18.2,85-45.6c9.2,0,15.2-12.1,30.4-15.2    c60.8-27.3,121.5-72.9,173.2-109.3c9.1-3.1,15.2-9.1,18.2-21.3L9149.1,1251.7z M9048.8,1856.2h-6c-45.6,21.3-36.5,57.8-48.6,91.2    c0,0,3,6,6,6c0,0,0,0,9.2,0c24.3-36.5,39.4-66.8,42.5-91.1C9058,1859.2,9058,1856.2,9048.8,1856.2z M9079.2,1768.1    c3.1-3-6,12.2-27.3,39.5c0,0,9.1,9.2,12.1,9.2s6.1,0,6.1-3.1c3.1-15.2,15.2-27.3,24.3-42.5c0,0-6-3.1-6-6.1L9079.2,1768.1z     M9188.6,1257.8h3H9188.6z M9191.6,1257.8c0,0,0,0,9.2-3v-3.1h-6.1L9191.6,1257.8z M9231.1,1230.5c0,0,3.1-3.1,3.1-6.1v-6.1    l-6.1,6.1L9231.1,1230.5z M9246.3,1184.9c0,0,0,3.1,3.1,3.1c0,0,0-3.1,3.1-3.1l-3.1-3L9246.3,1184.9z"/>
		<path class="st0" d="M10428.1,2673.3c-69.9,106.3-115.4,170.1-133.7,194.4c-15.2,21.2-39.4,45.5-66.8,72.9    c-27.4,24.3-54.7,24.3-82,0c-51.7-39.4-82-82-88.1-130.6c-6.1-39.4,0-91.1,18.2-151.8c39.4-133.7,63.8-237,127.6-370.6    c51.7-94.2,72.9-142.8,63.8-145.8c-18.2,3-39.4,21.2-63.8,48.6c-45.5,63.8-97.2,118.4-145.8,179.2    c-85.1,109.3-167.1,224.8-236.9,346.2c-21.3,39.5-42.6,69.9-69.9,94.1l-36.5,51.7c-9.1,12.1-18.2,30.4-30.4,45.5    c-27.3,30.4-54.7,33.4-88.1,12.2c-51.6-27.4-63.8-76-36.4-139.8c36.4-69.9,72.9-145.8,97.2-221.7c3.1-15.2,12.1-39.5,27.3-66.8    c36.5-69.9,63.8-124.5,82-167.1c21.3-42.5,42.5-100.3,69.9-173.1c39.4-69.9,24.3-103.3-51.7-103.3c-72.9,0-130.6-15.2-173.1-45.5    c15.2,33.4,27.3,57.8,33.4,76c3,3,3,6,3,15.2c-3,60.7,6.1,121.5-6,179.2c-27.4,142.7-91.2,279.4-188.4,410    c-21.2,27.3-39.4,54.7-60.7,79c-45.5,69.9-118.5,109.4-191.3,145.8c-42.5,21.3-82,15.2-121.5-24.3c-57.7-51.7-85-115.4-79-197.4    c9.2-127.6,36.5-252.1,85.1-376.7c12.1-30.4,33.4-72.9,66.8-127.6c33.4-57.7,85.1-91.1,133.7-130.6c21.2-15.2,45.5-15.2,69.8,0    c9.2,3.1,24.3,12.1,45.5,27.4c24.3,21.2,27.4,42.5,6.1,60.7c-15.2,24.3-39.4,42.5-63.8,57.7c-18.2,21.3-30.4,39.5-33.4,54.7    c-3.1,9.1-12.1,27.3-33.4,51.7c-48.6,69.8-85.1,142.7-106.3,224.8c-21.3,82-45.5,154.9-45.5,236.9v30.4    c3,15.2,12.1,21.3,24.3,18.2c12.1-9.1,24.3-15.2,33.4-18.2c27.3-12.1,94.1-100.3,139.7-148.8c33.4-27.3,54.7-27.3,63.8-42.5    c6.1-9.1-3-3.1-27.3,12.1c-21.3,15.2-30.4,21.3-24.3,12.2c75.9-121.5,121.5-261.2,142.7-416.2c21.2-136.6,6-209.6-39.5-221.7    c-45.5-15.2-69.8-27.3-75.9-39.5c-9.1-9.1-3.1-30.4,18.2-63.8c21.2-33.4,30.4-51.7,33.4-57.7c9.1-27.3,18.2-30.4,24.3-9.2    c148.8,88.1,249.1,130.6,303.8,124.6c57.7-6.1,124.5,9.1,206.5,48.6c118.4,51.7,109.3,130.6,94.1,167    c-39.5,94.2-66.8,139.8-115.4,221.8c-27.3,72.9-60.7,136.6-94.1,200.4c0,0,0,6.1,0,18.2c3.1-6,9.1-9.1,12.1-9.1    c9.2-9.2,21.3-12.1,24.3-27.3c72.9-109.4,167-215.7,249-325c39.5-39.5,48.6-63.8,82-112.5c33.4-42.5,72.9-85,112.4-130.5    c6.1-15.2,15.2-18.2,30.4-12.2c27.4,21.3,54.7,18.2,82,27.4c12.2,12.1,57.8,54.6,57.8,66.8c0,85-66.8,188.3-112.4,273.4    l-45.5,94.1l-3.1-3.1h-6.1c0,3.1-3.1,15.2-6.1,15.2c3.1,3.1,6.1,9.2,6.1,9.2l-42.5,112.4c-6.1-9.2-12.2-12.2-15.2-12.2    c-6.1,0-9.2,6.1-9.2,18.2c0,3.1,6.1,9.2,15.2,15.2l6.1-9.1c-3.1,21.2-9.2,36.5-18.2,48.6c0,0-3.1-3.1-6.1-3.1c0,0,0-9.1,0-12.1    c0,0,0-3.1-3-3.1c0,3.1,0,6.1,0,6.1s3,3,6,6v24.3v3.1c0,0,0,6-3.1,6l3.1-6c-33.4,21.2-45.5,51.6-39.4,85c0,3.1-9.2,9.2-12.2,9.2    c-9.1,21.2-27.3,48.6-48.6,85c0,3.1-3,9.2-3,9.2c0,9.1,3,12.1,6,12.1c0,3.1,6.1,0,6.1,0c30.4-33.4,48.6-72.9,51.7-115.4    c9.1-6,15.2-15.2,24.3-30.4l-3.1,15.2c-15.2,51.7-18.2,88.1-12.1,106.4c45.5,0,63.8-39.5,91.1-66.8c9.2-9.2,48.6-60.8,115.4-155    c69.9-94.1,106.4-148.8,112.4-164c21.3-12.1,42.6-9.1,27.4,18.2C10543.5,2497.1,10498,2566.9,10428.1,2673.3z M9076.5,2439.3    c15.2-3.1,21.2-15.2,15.2-36.5c21.2-6,33.4-24.3,36.4-54.6l18.2-85.1c9.2-21.3,15.2-33.4,15.2-36.5c24.3-15.2,42.6-36.4,63.8-57.7    c3.1-3.1,3.1-9.2,3.1-18.2c0,0,0-6.1,0-15.2c-9.1,3.1-12.1,6.1-12.1,6.1c-27.3,39.4-45.5,69.8-48.6,88    c-12.1,3.1-18.2,15.2-18.2,33.4c-39.5,39.5-57.7,88.1-51.7,142.7c-15.2,6.1-21.2,18.2-18.2,36.5c-24.3,12.1-12.1,39.5-21.2,51.7    c-9.2,9.1-15.2,24.3-15.2,51.7c-9.2,9.1-15.2,24.3-15.2,45.5c0,3.1,3,9.1,6,12.1c0,0,3.1-3.1,3.1-6.1c0-15.2,3.1-30.4,3.1-51.6    c12.1-3.1,18.2-21.3,18.2-54.7C9064.3,2487.9,9070.4,2472.8,9076.5,2439.3z M9595.8,2287.5c-3,0-9.1,3-15.2,9.1    c-6,6.1-9.1,12.1-9.1,21.3c0,12.1,12.1,24.3,0,51.7c-9.1,27.3-48.6,66.8-51.7,75.9l-39.4,97.2c-3.1,12.1-15.2,9.1-24.3,18.2    c0,3.1,3.1,9.1,6.1,15.2c9.1,0,12.1-3.1,15.2-6.1c21.2-3.1,33.4-18.2,42.5-42.5c12.1-57.8,72.9-155,85.1-215.7c0,0,0-9.1,0-12.1    C9598.9,2290.5,9595.8,2287.5,9595.8,2287.5z M9577.6,2175.1v-57.8c0,0-6.1-6.1-9.2-9.1c0,3-3.1,9.1-3.1,12.1v57.7    c0,33.4,0,51.7,0,51.7c0,3.1,3.1,9.2,6.1,12.1c0-3,3.1-6,6.1-9.1V2175.1z M9738.6,2700.6c-3.1,0-6.1,0-6.1,3.1    c-3.1,9.1-6.1,15.2-6.1,18.2s3.1,9.1,3.1,9.1c6.1,0,9.2-3.1,9.2-6c3.1,0,6-6.1,6-15.3C9744.6,2709.6,9741.7,2703.6,9738.6,2700.6z     M9778.1,2451.5l-3.1,6.1c-6,3.1-9.1,9.2-9.1,15.2l9.1,9.2c0,0,3.1,3,3.1-6.1c3.1-3.1,6.1-9.1,6.1-12.1    C9784.2,2460.6,9781.1,2457.6,9778.1,2451.5z M9814.5,2336.1c9.1,9.1,15.2,15.2,18.2,15.2c15.2,0,18.2-6.1,12.1-18.2    c0,6-3.1,3.1-12.1-12.2C9829.7,2330,9823.6,2336.1,9814.5,2336.1z M9844.9,2257.1c15.2-6,21.3-21.2,15.2-42.5    c9.2,0,15.2-6.1,15.2-9.1c21.3-27.4,36.5-57.8,48.6-85.1c3.1-3.1,3.1-6.1,3.1-9.2c0,0-3.1-9.1-3.1-12.1c-6,0-9.1,0-9.1,3.1    c-27.4,33.4-45.5,69.9-54.7,112.4c-9.1,9.1-12.1,24.3-12.1,45.5c-9.1,9.2-9.1,18.2,0,24.3c0,3.1,0,12.1,0,12.1    c3.1,0,3.1,3.1,3.1,3.1s3.1,0,3.1-9.2c0,0-6.1-3-9.2-6V2257.1z M10355.2,2220.7c3,0,9.1-3.1,9.1-6.1c3.1-3.1,3.1-9.1,3.1-18.2    c0,0-3.1-6-3.1-9.1c0,3.1-6.1,6-9.1,6c0,3.1-6.1,15.2-6.1,15.2C10349.1,2217.6,10355.2,2220.7,10355.2,2220.7z"/>
		<path class="st0" d="M10765.5,2402.9l-36.5,18.2c-75.9,106.4-124.5,218.7-142.7,340.2c0,0,0,12.2,0,33.4c0,57.8,27.3,76,79,60.8    c15.2-6.1,24.3-12.2,30.4-18.2c63.8-45.6,136.7-106.4,218.7-182.3l215.7-203.6c0-3,6.1-6,15.2-9.1c0,9.1,3.1,18.2,3.1,18.2    c-27.3,45.5-88,118.5-182.3,218.7c-91.1,97.2-154.9,151.9-188.3,164c-21.3,21.3-42.5,39.5-63.8,48.6    c-88.1,57.8-188.4,21.3-215.7-75.9c-33.4-100.3-36.5-191.3-6-276.4c57.7-182.3,148.8-328.1,270.3-437.4    c27.3-27.3,69.9-48.6,106.3-75.9c27.4-18.2,63.8-24.3,103.3-15.2c57.7,21.2,100.2,42.5,133.7,66.8c27.3,24.3,33.4,54.6,18.2,88    c-54.7,112.4-139.8,188.3-252.2,233.9c-27.3,15.2-54.7,12.1-66.8,12.1C10777.7,2405.9,10762.5,2402.9,10765.5,2402.9z     M10650.1,2415.1c6-3.1,12.1-6.1,15.2-12.2c0,0,0-3,0-6c-3.1,0-9.2,3.1-9.2,3.1c0,3,0,15.2,0,15.2c-24.3,15.2-36.4,33.4-36.4,51.7    c-12.2,21.2-18.2,33.3-18.2,39.4c-45.5,39.5-54.7,94.1-69.9,145.8c0,3.1,9.2,9.2,9.2,9.2l6-3.1c12.1-48.6,51.7-97.2,51.7-158    c9.1-9.1,15.2-21.2,18.2-33.3C10631.9,2463.7,10644,2448.5,10650.1,2415.1z M10719.9,2311.8l6.1-3.1c0,0,3.1-3.1,3.1-6    c-3.1,0-3.1,3-3.1,3C10717,2308.7,10719.9,2311.8,10719.9,2311.8z M11051,2108.3c-15.2-6.1-24.3-6.1-33.4,3    c-39.4,36.5-88,69.9-124.5,106.4c-33.4,33.4-60.7,72.9-88.1,100.2c0,0,0,6,0,15.2c3.1,6,9.2,9.1,18.2,9.1    c97.2-33.4,170.1-88,221.7-164c9.2-15.2,9.2-33.4,18.2-45.5C11051,2117.4,11048,2108.3,11051,2108.3z"/>
		<path class="st0" d="M11154.3,3019.5c-69.8-12.1-127.6-21.2-197.4-36.4c-45.5-9.2-60.7-48.6-97.2-76c0,0,0-9.1,0-24.3    c9.2-15.2,15.3-24.3,18.2-39.5l145.8-261.2c24.3-48.6,42.6-97.2,69.9-145.8c15.2-48.6,42.5-94.1,63.8-139.7    c33.4-66.8,54.7-115.4,63.8-148.8c15.2-69.8,54.7-142.7,118.5-224.8c6-9.1,18.2-21.3,39.4-33.4c33.4-12.1,82,18.2,115.4,27.3    c3.1,0,54.7,36.5,51.7,51.7c-27.3,45.5-121.5,133.7-145.8,173.2c-48.6,91.1-54.7,167-18.2,224.8c21.3,36.4,39.5,72.9,63.8,106.3    l45.6,82c45.5,94.1,27.3,194.4-48.7,303.7c-27.3,39.5-60.7,76-106.3,112.4c-24.3,12.2-45.5,24.3-57.7,33.4    C11233.3,3007.3,11187.8,3022.5,11154.3,3019.5z M11081.5,2554.8c-3.1-6.1-6.1-9.1-6.1-9.1c0,9.1,0,9.1,0,9.1    c0,3.1,6.1,9.2,9.2,9.2c-6.1,18.2-9.2,27.3-9.2,27.3c-33.4,30.4-60.7,72.9-82,127.6c-12.1,39.5-33.4,72.9-48.6,112.4    c-12.1,36.5,6.1,75.9,33.4,60.7c33.4-9.1,51.7-3.1,79-3.1c15.2,0,39.5,3.1,63.8,0c106.4-3,182.3-63.8,233.9-188.3    c21.3-51.7,21.3-94.1,6.1-130.6c-15.3-27.3-39.5-66.8-66.8-118.5c-27.4-36.4-45.6-69.8-69.9-106.3c-3.1-9.1-9.1-12.1-12.1-12.1    l-12.1,15.2c-33.4,72.9-72.9,145.8-118.5,218.7V2554.8z M11403.4,2779.5c21.3-51.7,21.3-97.2,0-133.7c0,3.1-3.1,3.1-12.1-6    c-3.1,3.1-3.1,9.1-3.1,12.1c-9.2,51.7-12.1,97.2-21.3,142.7c-33.4,27.4-51.7,51.7-57.7,72.9c-3.1,3.1,0,6,3.1,15.2c0,0,3,0,6-3.1    c33.4-33.4,48.6-60.7,45.5-85.1C11385.2,2794.7,11400.4,2788.7,11403.4,2779.5z"/>
	</g>
	<path class="st0" d="M4149.6,1775.2c6.5,1.2,12.9,2.9,19.4,4l-14-14C4153.2,1768.6,4151.4,1771.9,4149.6,1775.2z M3905.1,858.1   c19.7-0.1,39.5,1,59,5.4c23.6,4.4,46.9,11.7,67,21.8c13.5,6.8,32.6,17.8,44.6,26.9c3.1,2.3,6.9,5,10.3,7.4L3166.5,0l-388.4,388.4   L2389.8,0L0,2389.8l2389.8,2389.8l388.4-388.4l388.4,388.4l912.2-912.2c-26.2-12.1-51.9-26.3-77.1-42.3L3166.5,4660l-328.6-328.6   l869.4-869.4c-8.9-35-13.2-71-11.8-107.7l-917.4,917.4l-1882-1881.9l1882-1881.9l635.3,635.3l1.3-0.7c8-4.1,24.3-12.5,53.2-31.1   c5.9-3.8,12-7.4,18.3-10.8c0.8-0.4,1.8-1,2.6-1.5l-651.1-651l328.6-328.6L3905.1,858.1z M776.7,2389.8l1941.7,1941.7L2389.8,4660   L119.5,2389.8L2389.8,119.5l328.6,328.6L776.7,2389.8z M4322.9,1156.4c12.8,34.4,21.6,70.1,21.6,107.5c0,10.9-1.1,21.3-1.6,31.9   l575,575c23.2-18.8,48.6-33.3,75.7-43.8L4322.9,1156.4z"/>
</g>
</svg>